<svg width="24" height="24" viewBox="0 0 24 24" fill="none" xmlns="http://www.w3.org/2000/svg">
    <path d="M9.7441 6.32189C10.4691 6.11838 11.2242 6 12 6C17.5228 6 22 12 22 12C22 12 20.8807 13.5 19.0711 15M5.28466 8.71247C3.2671 10.3019 2 12 2 12C2 12 6.47715 18 12 18C12.6849 18 13.3538 17.9077 14 17.746" stroke="black" stroke-width="2" stroke-linecap="round" stroke-linejoin="round"/>
    <path d="M12 14C13.1045 14 12 13.1046 12 12L11 11C9.89543 11 9.99996 10.8954 9.99996 12C9.99996 13.1046 10.8954 14 12 14Z" stroke="black" stroke-width="2" stroke-linecap="round" stroke-linejoin="round"/>
    <path d="M4 4L20 20" stroke="#222222" stroke-width="2" stroke-linecap="round" stroke-linejoin="round"/>
</svg>
