<svg width="24" height="24" viewBox="0 0 24 24" fill="none" xmlns="http://www.w3.org/2000/svg">
<path d="M5 21L19 21C19.5523 21 20 20.5523 20 20L20 10C20 9.44771 19.5523 9 19 9L5 9C4.44772 9 4 9.44772 4 10L4 20C4 20.5523 4.44772 21 5 21Z" stroke="#ffff" stroke-width="2" stroke-linecap="round" stroke-linejoin="round"/>
<path d="M9.23077 9L14.7692 9C14.8967 9 15 8.89668 15 8.76923L15 6C15 4.34315 13.6569 3 12 3C10.3431 3 9 4.34315 9 6L9 8.76923C9 8.89668 9.10332 9 9.23077 9Z" stroke="#ffff" stroke-width="2" stroke-linecap="round" stroke-linejoin="round"/>
</svg>
