<svg width="180" height="48" xmlns="http://www.w3.org/2000/svg" xmlns:xlink="http://www.w3.org/1999/xlink">
    <defs>
        <path id="a" d="M13.198 15.688V.218H0v15.47z" />
    </defs>
    <g fill="none" fill-rule="evenodd">
        <g fill="#35312E">
            <path d="M60.508 15.845 52 34.202v.605h5l1.188-2.559.055-.083h8.426l.027.083 1.188 2.559h5v-.605l-2.928-6.33H59.873l.083-.193 2.321-5.476.138-.303.138.303 1.409 3.22 3.812-2.257-4.254-9.137zM69.349 14.029v4.651h5.884V34.807h4.945V18.68h5.856v-4.651zM87.415 14.029v20.778h12.846v-4.431h-7.873V26.138H99.1v-3.77h-6.712V18.68h7.596v-4.651zM101.449 24.514c.027 7.073 5.47 10.266 10.497 10.266h.083c4.172 0 8.895-2.092 9.724-7.926h-4.972c-.58 2.092-2.349 3.357-4.752 3.357-3.094-.027-5.332-2.422-5.332-5.724 0-3.55 2.128-5.917 5.332-5.917 1.934 0 3.343.715 4.2 2.091l4.17-2.504c-1.657-2.614-4.779-4.183-8.37-4.183-2.735 0-5.304.936-7.238 2.642-2.182 1.954-3.315 4.678-3.342 7.898M135.289 14.029v10.513l-9.558-9.55-2.624 1.569v18.246h4.917V24.349l10.277 10.431h1.933V14.029zM144.571 27.872l-2.928 6.33v.605h5l1.188-2.532.028-.082h8.398l.027.082 1.188 2.532h5v-.606l-8.453-18.356-3.01-1.788-6.438 13.815Zm7.404-5.669.138-.303.138.303 2.32 5.476.083.193h-5.165l2.486-5.669Z" />
        </g>
        <path d="M43.733 16.161a2.038 2.038 0 0 0-.684-.703l-11.14-6.68a2.124 2.124 0 0 0-1.04-.278c-.37 0-.717.092-1.041.278l-11.164 6.68c-.29.178-.53.422-.702.706a1.978 1.978 0 0 0-.292 1.027v13.383c0 .38.106.738.296 1.047.17.275.404.513.698.686l11.14 6.68c.324.185.694.3 1.041.3.37 0 .717-.091 1.04-.3l11.141-6.68c.284-.174.52-.413.691-.69.192-.308.303-.665.303-1.043V17.19c0-.363-.104-.719-.287-1.03" fill="#F4A11E" />
        <g transform="translate(30.868 15.95)">
            <mask id="b" fill="#fff">
                <use xlink:href="#a" />
            </mask>
            <path d="M12.895 15.688c.191-.309.303-.666.303-1.044V1.25c0-.363-.104-.72-.287-1.03L0 7.958l12.894 7.73Z" fill="#FABA24" mask="url(#b)" />
        </g>
        <path d="M30.868 39.315c.37 0 .718-.092 1.042-.3l11.16-6.687c.285-.175.52-.413.693-.69l-12.895-7.73v15.407Z" fill="#F4A11E" />
        <path d="M17.967 31.641c.17.276.404.513.699.687l11.16 6.686c.324.185.695.3 1.042.3V23.908l-12.901 7.734Z" fill="#D36529" />
        <path d="M17.962 16.17a1.976 1.976 0 0 0-.292 1.029v13.394c0 .38.106.739.297 1.049l12.901-7.734-12.906-7.737Z" fill="#D8752F" />
        <path d="m43.094 15.463-11.16-6.685A2.131 2.131 0 0 0 30.89 8.5c-.37 0-.718.093-1.042.278l-11.183 6.685a2.13 2.13 0 0 0-.704.708l12.906 7.736 12.91-7.74a2.043 2.043 0 0 0-.684-.704" fill="#D53416" />
    </g>
</svg>
