<svg width="144" height="173" viewBox="0 0 144 173" fill="none" xmlns="http://www.w3.org/2000/svg">
<g id="Group 1">
<path id="Vector" d="M34.9357 53.9879C34.9357 34.9073 46.5679 30.2544 58.6881 30.2544C63.3278 30.17 67.8127 31.9235 71.1647 35.1326L71.4648 35.4516L91.3523 8.09686L90.8084 7.77788C80.9358 2.48357 69.8704 -0.190698 58.6696 0.0105773C28.4069 0.0105773 0 17.4776 0 54.0049V57.7573H34.9156L34.9357 53.9879Z" fill="#6F6DFF"/>
<path id="Vector_2" d="M124.17 103.386V2.8244H95.1836L91.3375 8.11503C104.996 16.0139 114.077 29.6908 114.077 49.2022C114.077 66.6693 107.097 78.3016 98.0167 90.1761L97.7544 90.4762L60.7936 141.322H86.9102V172.748H124.171V141.322H143.721V103.387L124.17 103.386Z" fill="#222222"/>
<path id="Vector_3" d="M57.3105 87.5501L65.6595 75.8804C72.6387 66.4997 76.9164 60.7396 76.9164 49.1074C76.9762 44.0185 75.028 39.1112 71.4943 35.4489L0.0498657 133.762V141.267H18.305L57.3105 87.5501Z" fill="#222222"/>
<path id="Vector_4" d="M18.268 141.333L0.369262 165.948L0.0124512 166.454V172.758H86.9151V141.332H60.799L18.268 141.333Z" fill="#6F6DFF"/>
</g>
</svg>
