<svg width="23" height="28" viewBox="0 0 23 28" fill="none" xmlns="http://www.w3.org/2000/svg">
<g id="Group 1">
<path id="Vector" d="M5.89432 9.16898C5.89432 6.24373 7.67766 5.53039 9.53581 5.53039C10.2471 5.51745 10.9347 5.78629 11.4486 6.27827L11.4946 6.32717L14.5436 2.13342L14.4602 2.08452C12.9466 1.27285 11.2502 0.862854 9.53297 0.893711C4.8934 0.893711 0.53833 3.57159 0.53833 9.17159V9.74686H5.89125L5.89432 9.16898Z" fill="#6F6DFF"/>
<path id="Vector_2" d="M19.5749 16.7421V1.32495H15.1309L14.5413 2.13606C16.6353 3.34703 18.0274 5.44384 18.0274 8.43514C18.0274 11.113 16.9574 12.8964 15.5653 14.7168L15.5251 14.7629L9.85861 22.5581H13.8625V27.376H19.575V22.5581H22.5722V16.7422L19.5749 16.7421Z" fill="#FDFDFD"/>
<path id="Vector_3" d="M9.32459 14.3143L10.6046 12.5252C11.6746 11.0871 12.3304 10.204 12.3304 8.42064C12.3395 7.64047 12.0409 6.88812 11.4991 6.32666L0.545959 21.3991V22.5496H3.34465L9.32459 14.3143Z" fill="#FDFDFD"/>
<path id="Vector_4" d="M3.33898 22.5596L0.594925 26.3334L0.540222 26.411V27.3775H13.8633V22.5596H9.85941L3.33898 22.5596Z" fill="#6F6DFF"/>
</g>
</svg>
