<svg width="287" height="287" viewBox="0 0 287 287" fill="none" xmlns="http://www.w3.org/2000/svg">
<circle cx="143.5" cy="143.5" r="138" stroke="#222222" stroke-width="11"/>
<path d="M106.936 111.988C106.936 92.9073 118.568 88.2544 130.688 88.2544C135.328 88.17 139.813 89.9235 143.165 93.1326L143.465 93.4516L163.352 66.0969L162.808 65.7779C152.936 60.4836 141.87 57.8093 130.67 58.0106C100.407 58.0106 72 75.4776 72 112.005V115.757H106.916L106.936 111.988Z" fill="#6F6DFF"/>
<path d="M196.17 161.386V60.8244H167.184L163.338 66.115C176.996 74.0139 186.077 87.6908 186.077 107.202C186.077 124.669 179.097 136.302 170.017 148.176L169.754 148.476L132.794 199.322H158.91V230.748H196.171V199.322H215.721V161.387L196.17 161.386Z" fill="#222222"/>
<path d="M129.31 145.55L137.659 133.88C144.639 124.5 148.916 118.74 148.916 107.107C148.976 102.019 147.028 97.1112 143.494 93.4489L72.0499 191.762V199.267H90.305L129.31 145.55Z" fill="#222222"/>
<path d="M90.268 199.333L72.3693 223.948L72.0125 224.454V230.758H158.915V199.332H132.799L90.268 199.333Z" fill="#6F6DFF"/>
</svg>
