<svg width="600" height="173" viewBox="0 0 600 173" fill="none" xmlns="http://www.w3.org/2000/svg">
<g clip-path="url(#clip0_59_1272)">
<path d="M375.273 141.355H394.729V57.7708H421.389V40.4912H348.611V57.7708H375.271L375.273 141.355Z" fill="#222222"/>
<path d="M22.0233 67.3519C22.0233 59.6035 30.1848 56.4514 37.5205 56.4514C43.7956 56.5231 49.8483 58.7862 54.6312 62.849L64.8752 48.6462C56.5127 42.3375 46.2674 39.0326 35.7948 39.2655C19.1342 39.2655 2.62412 49.6032 2.62412 67.5582C2.62412 78.8152 8.94688 85.7945 16.8453 90.3912C30.3349 98.2896 49.0031 99.8657 49.0031 112.811C49.0031 120.128 42.9808 125.438 34.3502 125.438C29.8692 125.3 25.4629 124.253 21.3991 122.36C17.3353 120.466 13.6988 117.767 10.7104 114.425L-0.00265503 129.265C9.47665 137.678 21.659 142.411 34.3313 142.605C52.4364 142.605 68.3837 130.26 68.3837 112.436C68.3837 78.5525 22.0052 83.5804 22.0052 67.4067" fill="#222222"/>
<path d="M208.354 125.368C189.592 125.368 179.63 111.015 179.63 90.9022C179.63 70.7894 189.686 56.4371 208.354 56.4371C227.022 56.4371 237.078 70.8083 237.078 90.9022C237.078 110.996 227.022 125.368 208.354 125.368ZM208.354 39.1945C178.185 39.1945 159.572 60.7329 159.572 90.9022C159.572 121.071 178.333 142.61 208.354 142.61C238.373 142.61 257.133 121.071 257.133 90.9022C257.133 60.7329 238.371 39.1945 208.354 39.1945Z" fill="#222222"/>
<path d="M132.726 70.4512C132.775 67.2514 131.593 64.1549 129.424 61.8021C127.116 59.3443 123.795 57.7682 117.172 57.7682H99.5925V82.9841H117.172C123.795 82.9841 127.116 81.4081 129.424 78.9502C131.591 76.664 132.776 73.6196 132.726 70.4697M152.182 70.4697C152.293 78.1928 149.455 85.6676 144.245 91.3701C138.767 97.1301 131 100.301 117.979 100.301H99.5361V141.331H80.1366V40.467H118.015C130.998 40.467 138.653 43.6378 144.282 49.5477C149.493 55.2493 152.331 62.7247 152.218 70.4481" fill="#222222"/>
<path d="M318.164 99.1755C323.726 98.1504 328.828 95.4154 332.761 91.3519C337.875 85.591 340.7 78.1547 340.7 70.4512C340.7 62.7476 337.875 55.3113 332.761 49.5504C327.132 43.6403 319.515 40.4697 306.494 40.4697H268.669V141.334H288.106V90.4879L325.142 141.296H343.378V133.791L318.164 99.1755ZM305.688 82.984H288.108V57.7682H305.688C312.311 57.7682 315.632 59.3442 317.939 61.8021C320.108 64.1549 321.291 67.2513 321.241 70.4512C321.295 73.6071 320.109 76.6582 317.939 78.9502C315.632 81.3892 312.311 82.984 305.688 82.984Z" fill="#222222"/>
<path d="M491.229 54.0102C491.229 34.9297 502.861 30.2767 514.981 30.2767C519.621 30.1923 524.106 31.9459 527.458 35.1549L527.758 35.4739L547.646 8.1192L547.102 7.80022C537.229 2.50591 526.164 -0.16836 514.963 0.0329162C484.7 0.0329162 456.293 17.5 456.293 54.0272V57.7796H491.209L491.229 54.0102Z" fill="#6F6DFF"/>
<path d="M580.464 103.409V2.84674H551.477L547.631 8.13736C561.289 16.0362 570.37 29.7131 570.37 49.2246C570.37 66.6916 563.391 78.3239 554.31 90.1984L554.048 90.4986L517.087 141.345H543.203V172.771H580.464V141.345H600.014V103.409L580.464 103.409Z" fill="#222222"/>
<path d="M513.604 87.5725L521.953 75.9028C528.932 66.522 533.21 60.762 533.21 49.1297C533.269 44.0409 531.321 39.1335 527.788 35.4713L456.343 133.784V141.289H474.598L513.604 87.5725Z" fill="#222222"/>
<path d="M474.561 141.355L456.663 165.97L456.306 166.477V172.781H543.208V141.355H517.092L474.561 141.355Z" fill="#6F6DFF"/>
</g>
<defs>
<clipPath id="clip0_59_1272">
<rect width="600" height="172.76" fill="white"/>
</clipPath>
</defs>
</svg>
